<?xml version="1.0" encoding="UTF-8" standalone="no"?>
<svg
   xmlns:dc="http://purl.org/dc/elements/1.1/"
   xmlns:cc="http://creativecommons.org/ns#"
   xmlns:rdf="http://www.w3.org/1999/02/22-rdf-syntax-ns#"
   xmlns:svg="http://www.w3.org/2000/svg"
   xmlns="http://www.w3.org/2000/svg"
   viewBox="0 0 595.91333 223.468"
   height="223.468"
   width="595.91333"
   xml:space="preserve"
   id="svg2"
   version="1.1"><metadata
     id="metadata8"><rdf:RDF><cc:Work
         rdf:about=""><dc:format>image/svg+xml</dc:format><dc:type
           rdf:resource="http://purl.org/dc/dcmitype/StillImage" /></cc:Work></rdf:RDF></metadata><defs
     id="defs6"><clipPath
       id="clipPath18"
       clipPathUnits="userSpaceOnUse"><path
         id="path16"
         d="M 0,167.601 H 446.935 V 0 H 0 Z" /></clipPath></defs><g
     transform="matrix(1.3333333,0,0,-1.3333333,0,223.468)"
     id="g10"><g
       id="g12"><g
         clip-path="url(#clipPath18)"
         id="g14"><g
           transform="translate(29.435,28.3547)"
           id="g20"><path
             id="path22"
             style="fill:#f5762b;fill-opacity:1;fill-rule:nonzero;stroke:none"
             d="m 0,0 c 0,3.762 2.872,6.506 6.743,6.506 1.962,0 3.671,-0.672 4.834,-1.981 L 10.396,3.381 C 9.414,4.416 8.214,4.889 6.815,4.889 3.944,4.889 1.817,2.818 1.817,0 c 0,-2.816 2.127,-4.889 4.998,-4.889 1.399,0 2.599,0.493 3.581,1.528 l 1.181,-1.145 c -1.163,-1.308 -2.872,-2 -4.853,-2 C 2.872,-6.506 0,-3.762 0,0" /></g><g
           transform="translate(52.8422,23.5754)"
           id="g24"><path
             id="path26"
             style="fill:#f5762b;fill-opacity:1;fill-rule:nonzero;stroke:none"
             d="m 0,0 v -1.58 h -9.232 v 12.721 h 8.978 V 9.561 H -7.415 V 5.652 h 6.379 V 4.107 h -6.379 l 0,-4.107 z" /></g><g
           transform="translate(66.7265,34.716)"
           id="g28"><path
             id="path30"
             style="fill:#f5762b;fill-opacity:1;fill-rule:nonzero;stroke:none"
             d="m 0,0 v -12.721 h -1.49 l -7.633,9.487 v -9.487 H -10.94 V 0 h 1.49 l 7.633,-9.486 V 0 Z" /></g><g
           transform="translate(81.2099,28.3547)"
           id="g32"><path
             id="path34"
             style="fill:#f5762b;fill-opacity:1;fill-rule:nonzero;stroke:none"
             d="m 0,0 c 0,2.818 -2.108,4.889 -4.925,4.889 -2.853,0 -4.961,-2.071 -4.961,-4.889 0,-2.816 2.108,-4.889 4.961,-4.889 C -2.108,-4.889 0,-2.816 0,0 m -11.704,0 c 0,3.727 2.872,6.506 6.779,6.506 3.871,0 6.742,-2.762 6.742,-6.506 0,-3.742 -2.871,-6.506 -6.742,-6.506 -3.907,0 -6.779,2.781 -6.779,6.506" /></g><g
           transform="translate(94.6215,28.4289)"
           id="g36"><path
             id="path38"
             style="fill:#f5762b;fill-opacity:1;fill-rule:nonzero;stroke:none"
             d="M 0,0 H 1.745 V -4.963 C 0.473,-6.035 -1.29,-6.58 -3.071,-6.58 c -3.908,0 -6.779,2.744 -6.779,6.506 0,3.762 2.871,6.506 6.815,6.506 2.017,0 3.725,-0.672 4.889,-1.961 L 0.727,3.344 c -1.054,1.017 -2.253,1.47 -3.689,1.47 -2.944,0 -5.071,-2.052 -5.071,-4.888 0,-2.799 2.127,-4.889 5.053,-4.889 1.072,0 2.071,0.236 2.98,0.818 z" /></g><g
           transform="translate(108.288,30.2824)"
           id="g40"><path
             id="path42"
             style="fill:#f5762b;fill-opacity:1;fill-rule:nonzero;stroke:none"
             d="m 0,0 c 0,1.816 -1.218,2.854 -3.544,2.854 h -3.089 v -5.725 h 3.089 C -1.218,-2.871 0,-1.818 0,0 M 0.054,-8.287 -2.69,-4.381 C -2.944,-4.398 -3.217,-4.416 -3.489,-4.416 H -6.633 V -8.287 H -8.451 V 4.434 h 4.962 c 3.307,0 5.306,-1.672 5.306,-4.434 0,-1.963 -1.018,-3.381 -2.798,-4.018 l 3.016,-4.269 z" /></g><g
           transform="translate(120.518,26.6281)"
           id="g44"><path
             id="path46"
             style="fill:#f5762b;fill-opacity:1;fill-rule:nonzero;stroke:none"
             d="M 0,0 -2.744,6.234 -5.488,0 Z m 0.636,-1.453 h -6.761 l -1.399,-3.18 h -1.872 l 5.761,12.721 h 1.8 L 3.943,-4.633 H 2.035 Z" /></g><g
           transform="translate(128.1689,33.1359)"
           id="g48"><path
             id="path50"
             style="fill:#f5762b;fill-opacity:1;fill-rule:nonzero;stroke:none"
             d="M 0,0 V -4.436 H 6.379 V -5.998 H 0 v -5.143 H -1.817 V 1.58 H 7.16 V 0 Z" /></g><path
           id="path52"
           style="fill:#f5762b;fill-opacity:1;fill-rule:nonzero;stroke:none"
           d="m 137.891,34.716 h 1.817 V 21.995 h -1.817 z" /><g
           transform="translate(150.9941,26.6281)"
           id="g54"><path
             id="path56"
             style="fill:#f5762b;fill-opacity:1;fill-rule:nonzero;stroke:none"
             d="M 0,0 -2.744,6.234 -5.488,0 Z m 0.636,-1.453 h -6.761 l -1.399,-3.18 h -1.872 l 5.761,12.721 h 1.8 L 3.943,-4.633 H 2.035 Z" /></g><g
           transform="translate(183.287,21.9953)"
           id="g58"><path
             id="path60"
             style="fill:#f5762b;fill-opacity:1;fill-rule:nonzero;stroke:none"
             d="M 0,0 -0.018,9.268 -4.616,1.545 H -5.452 L -10.05,9.213 V 0 h -1.744 v 12.721 h 1.49 l 5.306,-8.942 5.234,8.942 H 1.727 L 1.745,0 Z" /></g><g
           transform="translate(199.5156,28.3547)"
           id="g62"><path
             id="path64"
             style="fill:#f5762b;fill-opacity:1;fill-rule:nonzero;stroke:none"
             d="m 0,0 c 0,2.818 -2.108,4.889 -4.925,4.889 -2.853,0 -4.961,-2.071 -4.961,-4.889 0,-2.816 2.108,-4.889 4.961,-4.889 C -2.108,-4.889 0,-2.816 0,0 m -11.704,0 c 0,3.727 2.872,6.506 6.779,6.506 3.871,0 6.742,-2.762 6.742,-6.506 0,-3.742 -2.871,-6.506 -6.742,-6.506 -3.907,0 -6.779,2.781 -6.779,6.506" /></g><g
           transform="translate(215.0536,34.716)"
           id="g66"><path
             id="path68"
             style="fill:#f5762b;fill-opacity:1;fill-rule:nonzero;stroke:none"
             d="m 0,0 v -12.721 h -1.49 l -7.633,9.487 v -9.487 H -10.94 V 0 h 1.49 l 7.633,-9.486 V 0 Z" /></g><g
           transform="translate(221.3954,33.1359)"
           id="g70"><path
             id="path72"
             style="fill:#f5762b;fill-opacity:1;fill-rule:nonzero;stroke:none"
             d="M 0,0 H -4.361 V 1.58 H 6.161 V 0 H 1.799 V -11.141 H 0 Z" /></g><g
           transform="translate(236.3705,26.6281)"
           id="g74"><path
             id="path76"
             style="fill:#f5762b;fill-opacity:1;fill-rule:nonzero;stroke:none"
             d="M 0,0 -2.744,6.234 -5.488,0 Z m 0.636,-1.453 h -6.761 l -1.399,-3.18 h -1.872 l 5.761,12.721 h 1.8 L 3.943,-4.633 H 2.035 Z" /></g><g
           transform="translate(247.4555,23.5754)"
           id="g78"><path
             id="path80"
             style="fill:#f5762b;fill-opacity:1;fill-rule:nonzero;stroke:none"
             d="M 0,0 C 3.144,0 5.161,1.928 5.161,4.779 5.161,7.633 3.144,9.561 0,9.561 H -3.435 V 0 Z m -5.252,11.141 h 5.361 c 4.089,0 6.87,-2.58 6.87,-6.362 C 6.979,1 4.198,-1.58 0.109,-1.58 h -5.361 z" /></g><g
           transform="translate(267.8818,28.3547)"
           id="g82"><path
             id="path84"
             style="fill:#f5762b;fill-opacity:1;fill-rule:nonzero;stroke:none"
             d="m 0,0 c 0,2.818 -2.108,4.889 -4.925,4.889 -2.853,0 -4.961,-2.071 -4.961,-4.889 0,-2.816 2.108,-4.889 4.961,-4.889 C -2.108,-4.889 0,-2.816 0,0 m -11.704,0 c 0,3.727 2.872,6.506 6.779,6.506 3.871,0 6.742,-2.762 6.742,-6.506 0,-3.742 -2.871,-6.506 -6.742,-6.506 -3.907,0 -6.779,2.781 -6.779,6.506" /></g><g
           transform="translate(280.9306,30.2824)"
           id="g86"><path
             id="path88"
             style="fill:#f5762b;fill-opacity:1;fill-rule:nonzero;stroke:none"
             d="m 0,0 c 0,1.816 -1.218,2.854 -3.544,2.854 h -3.089 v -5.725 h 3.089 C -1.218,-2.871 0,-1.818 0,0 M 0.054,-8.287 -2.69,-4.381 C -2.944,-4.398 -3.217,-4.416 -3.489,-4.416 H -6.633 V -8.287 H -8.451 V 4.434 h 4.962 c 3.307,0 5.306,-1.672 5.306,-4.434 0,-1.963 -1.018,-3.381 -2.798,-4.018 l 3.016,-4.269 z" /></g><g
           transform="translate(293.1606,26.6281)"
           id="g90"><path
             id="path92"
             style="fill:#f5762b;fill-opacity:1;fill-rule:nonzero;stroke:none"
             d="M 0,0 -2.744,6.234 -5.488,0 Z m 0.636,-1.453 h -6.761 l -1.399,-3.18 h -1.872 l 5.761,12.721 h 1.8 L 3.943,-4.633 H 2.035 Z" /></g><g
           transform="translate(309.1342,23.5754)"
           id="g94"><path
             id="path96"
             style="fill:#f5762b;fill-opacity:1;fill-rule:nonzero;stroke:none"
             d="M 0,0 C 3.144,0 5.161,1.928 5.161,4.779 5.161,7.633 3.144,9.561 0,9.561 H -3.435 V 0 Z m -5.252,11.141 h 5.361 c 4.089,0 6.87,-2.58 6.87,-6.362 C 6.979,1 4.198,-1.58 0.109,-1.58 h -5.361 z" /></g><g
           transform="translate(328.1249,23.5754)"
           id="g98"><path
             id="path100"
             style="fill:#f5762b;fill-opacity:1;fill-rule:nonzero;stroke:none"
             d="m 0,0 v -1.58 h -9.232 v 12.721 h 8.978 V 9.561 H -7.415 V 5.652 h 6.379 V 4.107 h -6.379 l 0,-4.107 z" /></g><g
           transform="translate(345.1894,23.5754)"
           id="g102"><path
             id="path104"
             style="fill:#f5762b;fill-opacity:1;fill-rule:nonzero;stroke:none"
             d="m 0,0 v -1.58 h -9.232 v 12.721 h 8.978 V 9.561 H -7.415 V 5.652 h 6.379 V 4.107 h -6.379 l 0,-4.107 z" /></g><g
           transform="translate(359.0014,34.716)"
           id="g106"><path
             id="path108"
             style="fill:#f5762b;fill-opacity:1;fill-rule:nonzero;stroke:none"
             d="M 0,0 -5.579,-12.721 H -7.378 L -12.976,0 h 1.963 L -6.433,-10.449 -1.817,0 Z" /></g><g
           transform="translate(369.8505,23.5754)"
           id="g110"><path
             id="path112"
             style="fill:#f5762b;fill-opacity:1;fill-rule:nonzero;stroke:none"
             d="m 0,0 v -1.58 h -9.232 v 12.721 h 8.978 V 9.561 H -7.415 V 5.652 h 6.379 V 4.107 h -6.379 l 0,-4.107 z" /></g><g
           transform="translate(383.7348,34.716)"
           id="g114"><path
             id="path116"
             style="fill:#f5762b;fill-opacity:1;fill-rule:nonzero;stroke:none"
             d="m 0,0 v -12.721 h -1.49 l -7.633,9.487 v -9.487 H -10.94 V 0 h 1.49 l 7.633,-9.486 V 0 Z" /></g><g
           transform="translate(390.0766,33.1359)"
           id="g118"><path
             id="path120"
             style="fill:#f5762b;fill-opacity:1;fill-rule:nonzero;stroke:none"
             d="M 0,0 H -4.361 V 1.58 H 6.161 V 0 H 1.799 V -11.141 H 0 Z" /></g><g
           transform="translate(408.704,28.3547)"
           id="g122"><path
             id="path124"
             style="fill:#f5762b;fill-opacity:1;fill-rule:nonzero;stroke:none"
             d="m 0,0 c 0,2.818 -2.108,4.889 -4.925,4.889 -2.853,0 -4.961,-2.071 -4.961,-4.889 0,-2.816 2.108,-4.889 4.961,-4.889 C -2.108,-4.889 0,-2.816 0,0 m -11.704,0 c 0,3.727 2.872,6.506 6.779,6.506 3.871,0 6.742,-2.762 6.742,-6.506 0,-3.742 -2.871,-6.506 -6.742,-6.506 -3.907,0 -6.779,2.781 -6.779,6.506" /></g><g
           transform="translate(412.1386,23.4484)"
           id="g126"><path
             id="path128"
             style="fill:#f5762b;fill-opacity:1;fill-rule:nonzero;stroke:none"
             d="m 0,0 0.672,1.418 c 0.945,-0.854 2.563,-1.473 4.199,-1.473 2.198,0 3.143,0.856 3.143,1.963 0,3.108 -7.705,1.145 -7.705,5.871 0,1.961 1.526,3.633 4.87,3.633 1.49,0 3.035,-0.398 4.09,-1.125 L 8.668,8.832 C 7.56,9.541 6.306,9.869 5.179,9.869 3.017,9.869 2.09,8.959 2.09,7.852 2.09,4.744 9.795,6.687 9.795,2.018 9.795,0.072 8.232,-1.6 4.871,-1.6 2.926,-1.6 1.018,-0.945 0,0" /></g><g
           transform="translate(158.1091,27.4605)"
           id="g130"><path
             id="path132"
             style="fill:#040606;fill-opacity:1;fill-rule:nonzero;stroke:none"
             d="M 0,0 C 1.213,0 2.245,0.505 3.097,1.517 3.95,2.529 4.376,3.749 4.376,5.178 4.376,3.749 4.802,2.529 5.654,1.517 6.506,0.505 7.539,0 8.752,0 7.539,0 6.506,-0.507 5.654,-1.518 4.802,-2.531 4.376,-3.75 4.376,-5.179 4.376,-3.75 3.95,-2.531 3.097,-1.518 2.245,-0.507 1.213,0 0,0" /></g><g
           transform="translate(73.4722,95.7862)"
           id="g134"><path
             id="path136"
             style="fill:#040606;fill-opacity:1;fill-rule:nonzero;stroke:none"
             d="M 0,0 C 0,8.309 -5.089,12.983 -14.437,12.983 H -37.39 v -39.468 h 22.953 c 9.348,0 14.437,4.674 14.437,12.983 z m -14.125,19.63 c 12.775,0 20.772,-7.686 20.772,-19.942 v -12.879 c 0,-12.359 -7.997,-19.941 -20.772,-19.941 H -37.39 v -19.63 h -6.647 V 19.63 Z" /></g><g
           transform="translate(136.2059,85.711)"
           id="g138"><path
             id="path140"
             style="fill:#040606;fill-opacity:1;fill-rule:nonzero;stroke:none"
             d="m 0,0 c 0,-8.516 -3.843,-14.748 -10.49,-17.76 l 10.282,-24.926 h -7.166 l -9.659,23.161 c -1.142,-0.105 -2.285,-0.208 -3.532,-0.208 h -13.709 v 6.647 h 12.983 c 9.451,0 14.644,4.674 14.644,13.086 v 9.867 0.104 c 0,8.413 -5.193,13.087 -14.644,13.087 h -22.954 v -65.744 h -6.647 v 72.391 h 30.327 C -7.894,29.705 0,22.123 0,9.971 Z" /></g><g
           transform="translate(192.9144,43.0246)"
           id="g142"><path
             id="path144"
             style="fill:#040606;fill-opacity:1;fill-rule:nonzero;stroke:none"
             d="M 0,0 H -28.769 C -41.544,0 -49.438,7.582 -49.438,19.941 V 52.45 c 0,12.256 7.894,19.941 20.669,19.941 h 25.861 v -6.647 h -25.446 c -9.348,0 -14.436,-4.673 -14.436,-12.982 V 42.479 H -9.14 V 36.144 H -42.79 V 19.63 c 0,-8.413 5.088,-12.983 14.436,-12.983 L 0,6.647 Z" /></g><g
           transform="translate(283.4826,43.0246)"
           id="g146"><path
             id="path148"
             style="fill:#040606;fill-opacity:1;fill-rule:nonzero;stroke:none"
             d="m 0,0 h -6.647 v 51.619 c 0,9.243 -4.674,14.437 -12.983,14.437 h -7.27 c -8.205,0 -12.775,-4.882 -12.983,-13.71 V 51.93 0 h -6.647 v 51.619 c 0,9.243 -4.674,14.437 -12.983,14.437 h -7.27 c -8.413,0 -12.982,-5.194 -12.982,-14.437 V 0 h -6.647 v 51.93 c 0,12.776 7.581,20.773 19.941,20.773 h 6.647 c 7.478,0 13.294,-3.012 16.618,-8.102 3.323,5.09 9.036,8.102 16.514,8.102 h 6.751 C -7.686,72.703 0,64.706 0,51.93 Z" /></g><path
           id="path150"
           style="fill:#040606;fill-opacity:1;fill-rule:nonzero;stroke:none"
           d="m 301.141,43.025 h -6.751 v 72.391 h 6.751 z" /><g
           transform="translate(342.7902,115.7275)"
           id="g152"><path
             id="path154"
             style="fill:#040606;fill-opacity:1;fill-rule:nonzero;stroke:none"
             d="m 0,0 c 12.359,0 19.941,-7.997 19.941,-20.773 v -51.93 H 13.294 V -49.75 H -5.401 v 6.544 h 18.695 v 22.122 c 0,9.243 -4.673,14.437 -12.982,14.437 h -11.425 c -8.413,0 -12.983,-5.194 -12.983,-14.437 v -51.619 h -6.647 v 51.93 C -30.743,-7.997 -23.161,0 -10.802,0 Z" /></g><g
           transform="translate(421.9337,85.711)"
           id="g156"><path
             id="path158"
             style="fill:#040606;fill-opacity:1;fill-rule:nonzero;stroke:none"
             d="m 0,0 c 0,-8.516 -3.843,-14.748 -10.49,-17.76 l 10.282,-24.926 h -7.166 l -9.659,23.161 c -1.143,-0.105 -2.285,-0.208 -3.532,-0.208 h -13.709 v 6.647 h 12.983 c 9.451,0 14.644,4.674 14.644,13.086 v 9.867 0.104 c 0,8.413 -5.193,13.087 -14.644,13.087 h -22.954 v -65.744 h -6.647 v 72.391 h 30.327 C -7.894,29.705 0,22.123 0,9.971 Z" /></g><g
           transform="translate(29.4351,132.1407)"
           id="g160"><path
             id="path162"
             style="fill:#f5762b;fill-opacity:1;fill-rule:nonzero;stroke:none"
             d="m 0,0 c 3.188,0 262.73,1.327 264.969,3.989 2.242,2.659 3.362,5.866 3.362,9.622 0,-3.756 1.119,-6.963 3.359,-9.622 C 273.929,1.327 276.645,0 279.833,0 c -3.188,0 -5.904,-1.332 -8.143,-3.991 -2.24,-2.662 -3.359,-5.867 -3.359,-9.622 0,3.755 -1.12,6.96 -3.362,9.622 C 262.73,-1.332 3.188,0 0,0" /></g></g></g></g></svg>